{"title":"Comedy Nights with Kapil - Daler, Darda Rab Rab Karda - 2nd Feb","uid":9558141,"size":289327189,"categoryP":"video","categoryS":"tv_shows","magnet":"?xt=urn:btih:01e1299713c4232e327698ddc06e10cf3450e194&amp;dn=Comedy+Nights+with+Kapil+-+Daler%2C+Darda+Rab+Rab+Karda+-+2nd+Feb+&amp;tr=udp%3A%2F%2Ftracker.openbittorrent.com%3A80&amp;tr=udp%3A%2F%2Fopen.demonii.com%3A1337&amp;tr=udp%3A%2F%2Ftracker.coppersurfer.tk%3A6969&amp;tr=udp%3A%2F%2Fexodus.desync.com%3A6969","seeders":1,"leechers":0,"uploader":"ashish.p","files":3,"time":1391385756,"description":"General \n\nComplete name : Comedy Nights with Kapil - Daler, Darda Rab Rab Karda - 2nd Feb 2014 - HQ 360p -AshishRocks- { DAKU RG }\nFormat : MPEG-4 \nFormat profile : Base Media / Version 2 \nCodec ID : mp42 \nFile size : 276 MiB \nDuration : 1h 0mn \nOverall bit rate mode : Variable \nOverall bit rate : 643 Kbps \nEncoded date : UTC 2014-02-01 19:56:36 \nTagged date : UTC 2014-02-01 19:56:36 \n\n\nVideo \n\nID : 1 \nFormat : AVC \nFormat/Info : Advanced Video Codec \nFormat profile : &lt;a class=&quot;__cf_email__&quot; href=&quot;/cdn-cgi/l/email-protection&quot; data-cfemail=&quot;d092b1a3b5bcb9beb5909ce3fee0&quot;&gt;[email&amp;#160;protected]&lt;/a&gt;&lt;script cf-hash='f9e31' type=&quot;text/javascript&quot;&gt;\n/* &lt;![CDATA[ */!function(){try{var t=&quot;currentScript&quot;in document?document.currentScript:function(){for(var t=document.getElementsByTagName(&quot;script&quot;),e=t.length;e--;)if(t[e].getAttribute(&quot;cf-hash&quot;))return t[e]}();if(t&amp;&amp;t.previousSibling){var e,r,n,i,c=t.previousSibling,a=c.getAttribute(&quot;data-cfemail&quot;);if(a){for(e=&quot;&quot;,r=parseInt(a.substr(0,2),16),n=2;a.length-n;n+=2)i=parseInt(a.substr(n,2),16)^r,e+=String.fromCharCode(i);e=document.createTextNode(e),c.parentNode.replaceChild(e,c)}}}catch(u){}}();/* ]]&gt; */&lt;/script&gt; \nFormat settings, CABAC : No \nFormat settings, ReFrames : 1 frame \nFormat settings, GOP : M=1, N=60 \nCodec ID : avc1 \nCodec ID/Info : Advanced Video Coding \nDuration : 1h 0mn \nBit rate : 544 Kbps \nMaximum bit rate : 1 195 Kbps \nWidth : 640 pixels \nHeight : 360 pixels \nDisplay aspect ratio : 16:9 \nFrame rate mode : Constant \nFrame rate : 25.000 fps \nColor space : YUV \nChroma subsampling : 4:2:0 \nBit depth : 8 bits \nScan type : Progressive \nBits/(Pixel*Frame) : 0.095 \nStream size : 234 MiB (85%) \nTagged date : UTC 2014-02-01 19:56:57 \n\nAudio \n\nID : 2 \nFormat : AAC \nFormat/Info : Advanced Audio Codec \nFormat profile : LC \nCodec ID : 40 \nDuration : 1h 0mn \nBit rate mode : Variable \nBit rate : 96.0 Kbps \nMaximum bit rate : 102 Kbps \nChannel(s) : 2 channels \nChannel positions : Front: L R \nSampling rate : 44.1 KHz \nCompression mode : Lossy \nStream size : 41.2 MiB (15%) \nTitle : IsoMedia File Produced by Google, 5-11-2011 \nEncoded date : UTC 2014-02-01 19:56:48 \nTagged date : UTC 2014-02-01 19:56:57 \n","torrent":{"xt":"urn:btih:01e1299713c4232e327698ddc06e10cf3450e194","amp;dn":"Comedy+Nights+with+Kapil+-+Daler%2C+Darda+Rab+Rab+Karda+-+2nd+Feb+","amp;tr":["udp%3A%2F%2Ftracker.openbittorrent.com%3A80","udp%3A%2F%2Fopen.demonii.com%3A1337","udp%3A%2F%2Ftracker.coppersurfer.tk%3A6969","udp%3A%2F%2Fexodus.desync.com%3A6969"],"infoHash":"01e1299713c4232e327698ddc06e10cf3450e194","infoHashBuffer":{"type":"Buffer","data":[1,225,41,151,19,196,35,46,50,118,152,221,192,110,16,207,52,80,225,148]},"announce":[],"urlList":[]}}